<mxfile host="app.diagrams.net" modified="2023-09-11T11:24:32.114Z" agent="Mozilla/5.0 (Windows NT 10.0; Win64; x64; rv:109.0) Gecko/20100101 Firefox/117.0" etag="GHeJp13jIj0C9V3mk_I_" version="21.7.4" type="github">
  <diagram name="Page-1" id="FAw1olMk5IcFjrkcoYhv">
    <mxGraphModel dx="1434" dy="774" grid="1" gridSize="10" guides="1" tooltips="1" connect="1" arrows="1" fold="1" page="1" pageScale="1" pageWidth="850" pageHeight="1100" math="0" shadow="0">
      <root>
        <mxCell id="0" />
        <mxCell id="1" parent="0" />
        <mxCell id="50YbwFizaEezknG3rBuh-1" value="Front End UI - Catalog of SKUs with Prices and Locations" style="rounded=1;whiteSpace=wrap;html=1;" vertex="1" parent="1">
          <mxGeometry x="50" y="130" width="250" height="100" as="geometry" />
        </mxCell>
        <mxCell id="50YbwFizaEezknG3rBuh-3" style="edgeStyle=orthogonalEdgeStyle;rounded=0;orthogonalLoop=1;jettySize=auto;html=1;entryX=1;entryY=0.5;entryDx=0;entryDy=0;" edge="1" parent="1" source="50YbwFizaEezknG3rBuh-2" target="50YbwFizaEezknG3rBuh-1">
          <mxGeometry relative="1" as="geometry" />
        </mxCell>
        <mxCell id="50YbwFizaEezknG3rBuh-5" style="edgeStyle=orthogonalEdgeStyle;rounded=0;orthogonalLoop=1;jettySize=auto;html=1;entryX=1;entryY=0.5;entryDx=0;entryDy=0;" edge="1" parent="1" source="50YbwFizaEezknG3rBuh-2" target="50YbwFizaEezknG3rBuh-4">
          <mxGeometry relative="1" as="geometry" />
        </mxCell>
        <mxCell id="50YbwFizaEezknG3rBuh-8" style="edgeStyle=orthogonalEdgeStyle;rounded=0;orthogonalLoop=1;jettySize=auto;html=1;" edge="1" parent="1" source="50YbwFizaEezknG3rBuh-2" target="50YbwFizaEezknG3rBuh-6">
          <mxGeometry relative="1" as="geometry" />
        </mxCell>
        <mxCell id="50YbwFizaEezknG3rBuh-2" value="API to serve SKUs with Prices and Locations" style="rounded=1;whiteSpace=wrap;html=1;" vertex="1" parent="1">
          <mxGeometry x="350" y="240" width="220" height="80" as="geometry" />
        </mxCell>
        <mxCell id="50YbwFizaEezknG3rBuh-4" value="Testing Script to randomly generate orders" style="rounded=1;whiteSpace=wrap;html=1;" vertex="1" parent="1">
          <mxGeometry x="50" y="330" width="240" height="100" as="geometry" />
        </mxCell>
        <mxCell id="50YbwFizaEezknG3rBuh-9" style="edgeStyle=orthogonalEdgeStyle;rounded=0;orthogonalLoop=1;jettySize=auto;html=1;exitX=0.5;exitY=0;exitDx=0;exitDy=0;exitPerimeter=0;" edge="1" parent="1" source="50YbwFizaEezknG3rBuh-6" target="50YbwFizaEezknG3rBuh-2">
          <mxGeometry relative="1" as="geometry" />
        </mxCell>
        <mxCell id="50YbwFizaEezknG3rBuh-10" style="edgeStyle=orthogonalEdgeStyle;rounded=0;orthogonalLoop=1;jettySize=auto;html=1;exitX=1;exitY=0.5;exitDx=0;exitDy=0;exitPerimeter=0;" edge="1" parent="1" source="50YbwFizaEezknG3rBuh-6" target="50YbwFizaEezknG3rBuh-7">
          <mxGeometry relative="1" as="geometry" />
        </mxCell>
        <mxCell id="50YbwFizaEezknG3rBuh-16" style="edgeStyle=orthogonalEdgeStyle;rounded=0;orthogonalLoop=1;jettySize=auto;html=1;" edge="1" parent="1" source="50YbwFizaEezknG3rBuh-6" target="50YbwFizaEezknG3rBuh-15">
          <mxGeometry relative="1" as="geometry" />
        </mxCell>
        <mxCell id="50YbwFizaEezknG3rBuh-6" value="OLTP Database (Hadoop?)" style="shape=cylinder3;whiteSpace=wrap;html=1;boundedLbl=1;backgroundOutline=1;size=15;" vertex="1" parent="1">
          <mxGeometry x="370" y="420" width="180" height="210" as="geometry" />
        </mxCell>
        <mxCell id="50YbwFizaEezknG3rBuh-12" style="edgeStyle=orthogonalEdgeStyle;rounded=0;orthogonalLoop=1;jettySize=auto;html=1;entryX=0.5;entryY=0;entryDx=0;entryDy=0;" edge="1" parent="1" source="50YbwFizaEezknG3rBuh-7" target="50YbwFizaEezknG3rBuh-11">
          <mxGeometry relative="1" as="geometry" />
        </mxCell>
        <mxCell id="50YbwFizaEezknG3rBuh-7" value="OLAP Database (Hadoop?)" style="shape=cylinder3;whiteSpace=wrap;html=1;boundedLbl=1;backgroundOutline=1;size=15;" vertex="1" parent="1">
          <mxGeometry x="640" y="420" width="180" height="210" as="geometry" />
        </mxCell>
        <mxCell id="50YbwFizaEezknG3rBuh-11" value="Analytics? Data Mart?" style="rounded=1;whiteSpace=wrap;html=1;" vertex="1" parent="1">
          <mxGeometry x="620" y="710" width="220" height="70" as="geometry" />
        </mxCell>
        <mxCell id="50YbwFizaEezknG3rBuh-14" style="edgeStyle=orthogonalEdgeStyle;rounded=0;orthogonalLoop=1;jettySize=auto;html=1;exitX=0;exitY=0.5;exitDx=0;exitDy=0;" edge="1" parent="1" source="50YbwFizaEezknG3rBuh-13">
          <mxGeometry relative="1" as="geometry">
            <mxPoint x="460" y="370" as="targetPoint" />
          </mxGeometry>
        </mxCell>
        <mxCell id="50YbwFizaEezknG3rBuh-13" value="Streaming Frameworks (Kafka?)" style="shape=process;whiteSpace=wrap;html=1;backgroundOutline=1;" vertex="1" parent="1">
          <mxGeometry x="500" y="340" width="120" height="60" as="geometry" />
        </mxCell>
        <mxCell id="50YbwFizaEezknG3rBuh-15" value="Ordering system" style="rounded=1;whiteSpace=wrap;html=1;" vertex="1" parent="1">
          <mxGeometry x="50" y="475" width="240" height="100" as="geometry" />
        </mxCell>
      </root>
    </mxGraphModel>
  </diagram>
</mxfile>
